<svg width="200" height="200" viewBox="0 0 200 200" fill="none" xmlns="http://www.w3.org/2000/svg">
<rect width="200" height="200" rx="10" fill="#ABB39C"/>
<path d="M37.4991 64.0512C37.3651 64.2503 37.1847 64.3893 36.9581 64.4682C36.7314 64.547 36.5084 64.556 36.289 64.4951L28.6499 62.4341C28.5402 62.4036 28.4455 62.3616 28.3659 62.308C28.1768 62.1807 28.061 62.0088 28.0187 61.7922C27.9764 61.5757 28.019 61.3729 28.1463 61.1837C28.2401 61.0444 28.3637 60.9468 28.517 60.8909C28.6671 60.8183 28.8153 60.8023 28.9615 60.8429L35.8864 62.9657L31.4379 57.4542C31.3122 57.2972 31.2431 57.1205 31.2306 56.9241C31.2249 56.7177 31.279 56.5299 31.3929 56.3607C31.5068 56.1914 31.6571 56.0756 31.8438 56.0132C32.0371 55.9409 32.2302 55.9334 32.423 55.9909L39.2034 58.0381L34.6306 52.4212C34.5379 52.301 34.4936 52.1627 34.4976 52.0062C34.4984 51.8332 34.5457 51.677 34.6395 51.5376C34.7668 51.3485 34.9388 51.2327 35.1553 51.1904C35.3718 51.1481 35.5746 51.1907 35.7638 51.318C35.8434 51.3716 35.918 51.4435 35.9875 51.5336L40.7719 57.8354C40.9109 58.0158 40.9865 58.2258 40.9988 58.4655C41.011 58.7052 40.9501 58.9245 40.8161 59.1236C40.6821 59.3227 40.5017 59.4617 40.275 59.5406C40.0484 59.6194 39.817 59.6301 39.581 59.5724L33.573 57.8282L37.4501 62.738C37.5923 62.935 37.6695 63.1534 37.6818 63.3931C37.694 63.6328 37.6331 63.8521 37.4991 64.0512Z" fill="white"/>
<path d="M52.2989 46.5706C52.1317 46.7074 51.9468 46.7657 51.7442 46.7454C51.5416 46.7252 51.3718 46.6315 51.235 46.4643C51.0982 46.2972 51.0399 46.1123 51.0602 45.9097C51.0728 45.6977 51.1627 45.5234 51.3299 45.3866L52.9875 44.0299L47.2075 36.9677L46.3567 38.827C46.2723 38.9891 46.1883 39.1044 46.1047 39.1728C45.9283 39.3172 45.7387 39.3793 45.5361 39.359C45.3334 39.3388 45.1599 39.2404 45.0155 39.064C44.8027 38.804 44.7676 38.5148 44.9103 38.1965L45.9953 35.657C46.0721 35.4856 46.1755 35.3467 46.3055 35.2403L46.598 35.0009C46.7837 34.8489 46.9948 34.7847 47.2312 34.8083C47.4676 34.8319 47.6618 34.9366 47.8138 35.1223L54.2551 42.9925L55.6341 41.8638C55.8012 41.727 55.9899 41.6734 56.2002 41.7029C56.4121 41.7155 56.5865 41.8054 56.7233 41.9726C56.8601 42.1397 56.9137 42.3284 56.8842 42.5387C56.864 42.7413 56.7703 42.911 56.6031 43.0478L52.2989 46.5706Z" fill="white"/>
<path d="M69.1466 37.2194C68.943 37.322 68.7364 37.3388 68.5269 37.2697C68.3174 37.2006 68.1613 37.0642 68.0587 36.8606L62.8007 26.4288C62.698 26.2252 62.6813 26.0187 62.7504 25.8092C62.814 25.5889 62.9477 25.4275 63.1513 25.3249C63.3656 25.2168 63.5775 25.1974 63.787 25.2665C63.9966 25.3356 64.1553 25.4773 64.2634 25.6916L69.5214 36.1234C69.624 36.327 69.6354 36.5362 69.5556 36.7512C69.4865 36.9607 69.3502 37.1167 69.1466 37.2194Z" fill="white"/>
<path d="M82.558 32.1245C82.3401 32.1917 82.1337 32.1737 81.9386 32.0706C81.7436 31.9675 81.6125 31.807 81.5453 31.5892L78.1028 20.4259C78.0356 20.208 78.0535 20.0016 78.1566 19.8065C78.2562 19.6 78.4149 19.4632 78.6328 19.396C78.8621 19.3253 79.0743 19.3415 79.2694 19.4446C79.4644 19.5477 79.5973 19.7139 79.668 19.9432L83.1105 31.1065C83.1777 31.3243 83.154 31.5326 83.0395 31.7312C82.9364 31.9262 82.7759 32.0573 82.558 32.1245Z" fill="white"/>
<path d="M101.007 28.8652C100.086 28.9416 99.2625 28.8113 98.5361 28.4743C97.8098 28.1372 97.2255 27.6258 96.7832 26.94C96.3519 26.2413 96.0976 25.4255 96.0201 24.4927C95.9427 23.5599 96.0596 22.7194 96.3708 21.9711C96.6929 21.2098 97.1844 20.6031 97.8452 20.1509C98.5061 19.6987 99.2969 19.4343 100.218 19.3579C101.127 19.2825 101.944 19.4133 102.671 19.7503C103.397 20.0874 103.982 20.6048 104.425 21.3025C104.867 21.9883 105.127 22.7976 105.205 23.7304C105.282 24.6632 105.16 25.5102 104.838 26.2714C104.514 27.0207 104.022 27.6215 103.362 28.0737C102.701 28.5259 101.916 28.7898 101.007 28.8652ZM100.883 27.3763C101.374 27.3356 101.831 27.1833 102.254 26.9194C102.69 26.6544 103.031 26.2649 103.277 25.7507C103.535 25.2356 103.633 24.6013 103.571 23.8479C103.509 23.1065 103.309 22.503 102.969 22.0375C102.641 21.571 102.241 21.249 101.769 21.0715C101.307 20.881 100.832 20.8061 100.341 20.8468C99.8391 20.8885 99.3702 21.0418 98.9346 21.3067C98.51 21.5587 98.1745 21.9418 97.9282 22.4559C97.6819 22.9701 97.5895 23.5979 97.651 24.3393C97.7136 25.0927 97.9087 25.7027 98.2364 26.1692C98.5641 26.6356 98.9587 26.9641 99.42 27.1546C99.8933 27.3441 100.381 27.418 100.883 27.3763Z" fill="white"/>
<path d="M117.914 28.5797C117.679 28.5304 117.482 28.4155 117.324 28.2352C117.166 28.0548 117.073 27.8515 117.047 27.6253L116.084 19.7719C116.071 19.6588 116.075 19.5553 116.094 19.4614C116.141 19.2382 116.257 19.0664 116.442 18.9457C116.626 18.8251 116.83 18.7882 117.053 18.8351C117.218 18.8696 117.355 18.9474 117.464 19.0684C117.588 19.1802 117.658 19.3115 117.676 19.4623L118.313 26.6772L121.747 20.4825C121.845 20.3069 121.983 20.1765 122.16 20.0911C122.349 20.0082 122.544 19.9876 122.743 20.0296C122.943 20.0715 123.107 20.1672 123.235 20.3167C123.375 20.4686 123.454 20.6447 123.473 20.8449L124.126 27.8975L127.611 21.5481C127.688 21.417 127.799 21.3239 127.946 21.2688C128.106 21.2045 128.269 21.1895 128.433 21.2241C128.657 21.2709 128.828 21.3867 128.949 21.5714C129.07 21.7561 129.107 21.9601 129.06 22.1832C129.04 22.2771 129.001 22.3733 128.944 22.4716L124.904 29.2747C124.789 29.4713 124.623 29.6203 124.406 29.7218C124.188 29.8233 123.962 29.8494 123.727 29.8001C123.492 29.7508 123.296 29.6359 123.137 29.4556C122.979 29.2752 122.882 29.0648 122.847 28.8244L122.204 22.6015L119.112 28.0404C118.983 28.2463 118.81 28.4 118.592 28.5014C118.375 28.6029 118.149 28.629 117.914 28.5797Z" fill="white"/>
<path d="M135.867 35.2793C135.678 35.1758 135.554 35.0264 135.497 34.8311C135.439 34.6357 135.462 34.4432 135.566 34.2536C135.669 34.0639 135.818 33.9404 136.014 33.8829C136.215 33.8149 136.41 33.8327 136.6 33.9361L138.48 34.9618L142.85 26.9503L140.808 26.8611C140.626 26.8439 140.487 26.8094 140.392 26.7577C140.192 26.6485 140.064 26.4962 140.006 26.3009C139.949 26.1055 139.974 25.9077 140.084 25.7076C140.245 25.4126 140.499 25.2714 140.848 25.2838L143.609 25.3341C143.797 25.3409 143.964 25.3844 144.112 25.4649L144.444 25.6459C144.654 25.7608 144.793 25.9323 144.86 26.1602C144.927 26.3881 144.903 26.6074 144.788 26.8181L139.918 35.7462L141.483 36.5996C141.672 36.703 141.793 36.8577 141.845 37.0636C141.913 37.2647 141.895 37.4601 141.791 37.6497C141.688 37.8393 141.533 37.96 141.327 38.0117C141.132 38.0692 140.94 38.0462 140.75 37.9427L135.867 35.2793Z" fill="white"/>
<path d="M150.781 49.1304C149.903 48.3128 149.287 47.3712 148.935 46.3055C148.884 46.0611 148.944 45.8467 149.116 45.6622C149.247 45.5217 149.409 45.4437 149.604 45.4282C149.799 45.4127 149.971 45.4745 150.12 45.6135C150.199 45.6871 150.262 45.7782 150.308 45.8869C150.475 46.2716 150.666 46.6298 150.882 46.9617C151.097 47.2936 151.381 47.6231 151.732 47.9501C152.707 48.8576 153.485 48.9996 154.065 48.3759C154.253 48.1739 154.282 47.9139 154.152 47.5959C154.031 47.2861 153.776 46.8282 153.39 46.2223C152.986 45.6169 152.674 45.0889 152.454 44.6383C152.243 44.1959 152.137 43.7284 152.136 43.236C152.153 42.743 152.365 42.2768 152.774 41.8377C153.346 41.2228 154.032 40.9265 154.831 40.9488C155.639 40.9793 156.455 41.3788 157.281 42.1474C157.957 42.7769 158.492 43.4795 158.885 44.255C158.975 44.4046 159.006 44.5564 158.978 44.7102C158.958 44.8722 158.899 45.006 158.801 45.1114C158.67 45.2519 158.503 45.3258 158.299 45.3331C158.105 45.3486 157.933 45.2868 157.783 45.1478C157.739 45.107 157.69 45.045 157.637 44.9621C157.274 44.3297 156.847 43.7847 156.355 43.3268C155.881 42.8853 155.426 42.6257 154.99 42.5479C154.571 42.4695 154.235 42.5664 153.982 42.8387C153.736 43.1023 153.679 43.41 153.811 43.7619C153.942 44.1138 154.214 44.588 154.626 45.1846C155.022 45.7987 155.321 46.3229 155.523 46.7572C155.734 47.1826 155.826 47.6378 155.801 48.1227C155.785 48.6157 155.564 49.0906 155.139 49.5474C154.616 50.1096 153.958 50.3666 153.167 50.3185C152.385 50.2787 151.589 49.8826 150.781 49.1304Z" fill="white"/>
<path d="M156.787 63.0711C156.664 62.8792 156.631 62.6723 156.688 62.4502C156.735 62.2347 156.854 62.0653 157.046 61.9422L167.029 55.5345C167.221 55.4113 167.424 55.3733 167.64 55.4203C167.855 55.4673 168.025 55.5867 168.148 55.7786C168.271 55.9705 168.309 56.1742 168.262 56.3897C168.222 56.6154 168.105 56.7898 167.913 56.9129L167.52 57.1658C168.76 57.4103 169.698 58.0274 170.334 59.0171C170.735 59.6432 170.953 60.3377 170.986 61.1005C171.036 61.867 170.864 62.6196 170.468 63.3584C170.089 64.1007 169.49 64.7345 168.672 65.2595C167.854 65.7846 167.024 66.0681 166.181 66.1101C165.355 66.1556 164.599 65.9994 163.912 65.6413C163.243 65.2868 162.707 64.7965 162.305 64.1704C161.67 63.1808 161.499 62.071 161.794 60.8412L157.931 63.3206C157.729 63.4503 157.52 63.4916 157.305 63.4446C157.089 63.3975 156.917 63.273 156.787 63.0711ZM163.466 63.147C163.946 63.8943 164.569 64.3428 165.335 64.4926C166.102 64.6424 166.919 64.4385 167.788 63.8811C168.656 63.3236 169.182 62.6653 169.365 61.9062C169.548 61.1471 169.399 60.3939 168.92 59.6466C168.621 59.1821 168.233 58.8109 167.756 58.5329C167.294 58.2586 166.792 58.0752 166.247 57.9825L163.066 60.0244C162.924 60.5579 162.876 61.0946 162.923 61.6347C162.987 62.1784 163.168 62.6825 163.466 63.147Z" fill="white"/>
<path d="M34.3783 152.446C33.7986 151.806 33.4056 151.085 33.1992 150.285C32.9928 149.484 33.0076 148.678 33.2436 147.865C33.4877 147.062 33.9701 146.334 34.6908 145.682C35.4116 145.03 36.1838 144.623 37.0076 144.46C37.8393 144.306 38.6432 144.372 39.419 144.657C40.1949 144.942 40.8727 145.405 41.4524 146.045C41.8791 146.517 42.1831 146.978 42.3645 147.429C42.5628 147.881 42.7014 148.338 42.7802 148.801C42.8256 149.083 42.7504 149.313 42.5546 149.49C42.4211 149.611 42.2483 149.67 42.036 149.668C41.8406 149.667 41.6826 149.6 41.5618 149.466C41.4732 149.368 41.4114 149.246 41.3762 149.1C41.2618 148.67 41.1391 148.319 41.0081 148.05C40.8942 147.78 40.6963 147.49 40.4145 147.179C39.7221 146.414 38.9562 146.014 38.1167 145.981C37.2862 145.939 36.5106 146.245 35.7898 146.897C35.0691 147.549 34.6835 148.294 34.6331 149.133C34.5916 149.963 34.917 150.761 35.6094 151.526C35.8912 151.838 36.1559 152.068 36.4033 152.216C36.6677 152.365 37.0084 152.518 37.4254 152.675C37.5673 152.724 37.6826 152.798 37.7712 152.896C37.8919 153.03 37.9388 153.198 37.9117 153.4C37.9015 153.604 37.8297 153.766 37.6962 153.886C37.5004 154.063 37.2642 154.115 36.9875 154.042C36.535 153.918 36.0894 153.738 35.6508 153.504C35.2292 153.27 34.805 152.918 34.3783 152.446Z" fill="white"/>
<path d="M45.528 160.543C44.8017 159.972 44.2875 159.315 43.9853 158.574C43.6831 157.832 43.6037 157.06 43.747 156.257C43.9072 155.451 44.2766 154.681 44.8553 153.945C45.434 153.209 46.0921 152.674 46.8296 152.338C47.584 152 48.3571 151.89 49.149 152.009C49.9409 152.128 50.6999 152.474 51.4262 153.045C52.143 153.609 52.6525 154.261 52.9547 155.003C53.2569 155.745 53.3326 156.522 53.1819 157.334C53.0385 158.138 52.6775 158.907 52.0988 159.643C51.5202 160.379 50.8536 160.915 50.0992 161.253C49.3523 161.582 48.5829 161.687 47.791 161.567C46.9991 161.448 46.2448 161.107 45.528 160.543ZM46.4517 159.369C46.8384 159.673 47.2767 159.873 47.7666 159.968C48.266 160.071 48.7809 160.018 49.3115 159.809C49.8515 159.608 50.3551 159.21 50.8226 158.616C51.2825 158.031 51.5467 157.453 51.6151 156.881C51.6929 156.316 51.6194 155.808 51.3946 155.356C51.1865 154.902 50.8892 154.523 50.5025 154.219C50.1064 153.908 49.6586 153.7 49.1592 153.598C48.6767 153.493 48.1702 153.545 47.6397 153.753C47.1091 153.962 46.6138 154.359 46.1539 154.944C45.6865 155.538 45.4138 156.117 45.336 156.682C45.2582 157.247 45.3233 157.756 45.5313 158.21C45.7487 158.671 46.0555 159.057 46.4517 159.369Z" fill="white"/>
<path d="M59.8471 168.234C59.1885 167.888 58.6484 167.394 58.2267 166.752C57.8212 166.105 57.6001 165.365 57.5633 164.532C57.5428 163.695 57.7587 162.846 58.211 161.985C58.6633 161.125 59.2375 160.471 59.9337 160.023C60.6461 159.571 61.3809 159.334 62.1382 159.312C62.9117 159.284 63.6277 159.444 64.2863 159.79C65.3272 160.337 66.0231 161.218 66.3742 162.433L68.4262 158.53C68.5379 158.317 68.6991 158.178 68.9098 158.113C69.1311 158.053 69.3426 158.076 69.5444 158.182C69.7462 158.288 69.8771 158.452 69.937 158.673C70.0025 158.884 69.9822 159.09 69.8761 159.292L64.4402 169.632C64.3341 169.834 64.1757 169.968 63.965 170.033C63.7544 170.099 63.5481 170.078 63.3463 169.972C63.1445 169.866 63.0055 169.705 62.9294 169.489C62.8639 169.278 62.8842 169.072 62.9903 168.87L63.2081 168.456C62.0083 168.855 60.888 168.781 59.8471 168.234ZM60.7661 166.989C61.2547 167.246 61.7673 167.38 62.3039 167.391C62.8566 167.396 63.3925 167.305 63.9117 167.117L65.6706 163.772C65.5312 163.237 65.2996 162.749 64.9757 162.308C64.6681 161.862 64.27 161.51 63.7814 161.253C62.9954 160.84 62.2322 160.757 61.4918 161.005C60.7514 161.253 60.1411 161.834 59.6609 162.747C59.1806 163.661 59.0483 164.493 59.2638 165.243C59.4794 165.994 59.9801 166.576 60.7661 166.989Z" fill="white"/>
<path d="M76.4592 174.742C75.0637 174.299 74.0964 173.558 73.5575 172.518C73.0336 171.471 73.0002 170.227 73.4573 168.785C73.7148 167.973 74.1011 167.271 74.6162 166.679C75.1313 166.087 75.7647 165.678 76.5166 165.45C77.2685 165.223 78.0963 165.253 79 165.539C79.8464 165.808 80.515 166.24 81.0057 166.836C81.5001 167.421 81.8022 168.096 81.912 168.861C82.0256 169.614 81.959 170.38 81.7123 171.158C81.6434 171.375 81.511 171.535 81.3151 171.636C81.1307 171.741 80.9184 171.756 80.6782 171.68L74.8617 169.835C74.6992 170.665 74.7989 171.383 75.1608 171.988C75.5226 172.594 76.1553 173.04 77.059 173.327C77.5394 173.479 77.9714 173.566 78.355 173.587C78.7501 173.611 79.1464 173.592 79.544 173.529C79.65 173.513 79.7602 173.522 79.8746 173.559C80.0576 173.617 80.1978 173.73 80.2951 173.9C80.3925 174.069 80.4103 174.251 80.3487 174.446C80.2689 174.697 80.053 174.862 79.7012 174.939C79.1753 175.049 78.6751 175.098 78.2005 175.086C77.7259 175.074 77.1455 174.959 76.4592 174.742ZM80.3259 170.171C80.4693 169.599 80.4694 169.083 80.326 168.622C80.194 168.165 79.9665 167.791 79.6435 167.499C79.3241 167.197 78.9699 166.984 78.581 166.86C78.1921 166.737 77.7798 166.707 77.3443 166.77C76.9124 166.822 76.5108 166.997 76.1395 167.295C75.7681 167.592 75.4764 168.016 75.2643 168.565L80.3259 170.171Z" fill="white"/>
<path d="M100.674 179.471C100.434 179.465 100.219 179.388 100.031 179.24C99.8421 179.092 99.7142 178.909 99.6472 178.691L97.264 171.146C97.2305 171.037 97.2149 170.935 97.2171 170.839C97.2223 170.611 97.3047 170.421 97.4643 170.269C97.6238 170.116 97.8175 170.043 98.0455 170.048C98.2134 170.052 98.3623 170.103 98.4921 170.202C98.6341 170.289 98.7274 170.406 98.7721 170.551L100.718 177.527L102.961 170.809C103.026 170.618 103.137 170.465 103.296 170.349C103.467 170.232 103.654 170.177 103.858 170.181C104.062 170.186 104.24 170.25 104.394 170.374C104.559 170.498 104.669 170.656 104.725 170.85L106.657 177.664L108.921 170.784C108.973 170.641 109.065 170.529 109.199 170.448C109.345 170.356 109.502 170.311 109.67 170.315C109.898 170.32 110.089 170.403 110.241 170.562C110.393 170.722 110.467 170.916 110.462 171.144C110.459 171.24 110.439 171.341 110.401 171.448L107.673 178.875C107.596 179.09 107.46 179.267 107.265 179.406C107.07 179.546 106.852 179.613 106.612 179.607C106.372 179.602 106.158 179.525 105.969 179.376C105.78 179.228 105.647 179.039 105.568 178.809L103.798 172.809L101.753 178.721C101.664 178.947 101.522 179.13 101.326 179.27C101.131 179.409 100.913 179.476 100.674 179.471Z" fill="white"/>
<path d="M114.067 167.736C113.817 167.769 113.591 167.708 113.389 167.554C113.187 167.399 113.069 167.197 113.035 166.947L113.026 166.876C112.992 166.626 113.053 166.4 113.208 166.198C113.362 165.996 113.564 165.878 113.814 165.844L113.921 165.83C114.171 165.797 114.397 165.857 114.599 166.012C114.802 166.166 114.919 166.369 114.953 166.618L114.962 166.69C114.996 166.94 114.935 167.166 114.78 167.368C114.626 167.57 114.424 167.688 114.174 167.721L114.067 167.736ZM115.578 178.775C115.352 178.805 115.151 178.753 114.976 178.619C114.801 178.485 114.698 178.305 114.668 178.079L113.645 170.425C113.615 170.199 113.667 169.998 113.801 169.823C113.933 169.636 114.112 169.527 114.338 169.497C114.576 169.465 114.783 169.516 114.958 169.65C115.133 169.784 115.237 169.97 115.269 170.208L116.291 177.862C116.321 178.088 116.264 178.29 116.118 178.467C115.984 178.642 115.804 178.745 115.578 178.775Z" fill="white"/>
<path d="M123.978 176.699C122.274 177.103 121.238 176.535 120.872 174.994L119.583 169.565L118.339 169.861C118.246 169.883 118.157 169.873 118.073 169.831C117.998 169.775 117.95 169.7 117.928 169.607C117.9 169.49 117.929 169.378 118.015 169.272L119.843 166.377C119.923 166.247 120.01 166.171 120.103 166.148C120.197 166.126 120.281 166.143 120.356 166.199C120.443 166.253 120.497 166.326 120.519 166.42L120.852 167.821L122.831 167.351C123.029 167.304 123.208 167.329 123.367 167.427C123.526 167.525 123.629 167.673 123.676 167.871C123.721 168.058 123.695 168.237 123.6 168.408C123.502 168.566 123.354 168.67 123.155 168.717L121.177 169.187L122.433 174.476C122.541 174.931 122.715 175.198 122.956 175.276C123.206 175.34 123.494 175.334 123.821 175.256C124.054 175.2 124.279 175.11 124.496 174.984C124.54 174.962 124.584 174.939 124.628 174.916C124.684 174.891 124.752 174.868 124.834 174.849C124.997 174.81 125.159 174.839 125.318 174.937C125.474 175.024 125.573 175.154 125.614 175.329C125.678 175.598 125.592 175.834 125.357 176.038C124.952 176.356 124.492 176.577 123.978 176.699Z" fill="white"/>
<path d="M130.47 173.481C130.258 173.566 130.051 173.566 129.848 173.479C129.645 173.393 129.501 173.244 129.416 173.032L125.058 162.193C124.973 161.982 124.974 161.775 125.061 161.572C125.143 161.358 125.289 161.208 125.501 161.123C125.713 161.038 125.922 161.044 126.129 161.142C126.343 161.224 126.493 161.371 126.578 161.582L128.331 165.941C128.566 165.303 128.872 164.747 129.25 164.272C129.628 163.796 130.151 163.424 130.819 163.156C131.432 162.91 132.019 162.842 132.58 162.952C133.153 163.058 133.657 163.314 134.093 163.721C134.539 164.124 134.883 164.626 135.125 165.227L137.032 169.97C137.117 170.182 137.111 170.391 137.013 170.598C136.926 170.801 136.777 170.945 136.566 171.03C136.354 171.116 136.147 171.115 135.944 171.028C135.741 170.942 135.597 170.793 135.512 170.581L133.672 166.005C133.126 164.647 132.241 164.214 131.016 164.706C130.459 164.93 130.016 165.276 129.687 165.745C129.37 166.209 129.114 166.764 128.922 167.411L130.936 172.421C131.021 172.633 131.015 172.842 130.917 173.049C130.831 173.252 130.682 173.396 130.47 173.481Z" fill="white"/>
<path d="M165.187 146.609C164.28 147.585 163.25 148.34 162.098 148.875C161.956 148.939 161.817 148.966 161.681 148.954C161.536 148.934 161.402 148.866 161.279 148.752C161.129 148.613 161.047 148.446 161.031 148.252C161.015 148.04 161.076 147.859 161.215 147.71C161.289 147.631 161.384 147.564 161.501 147.508C162.344 147.113 163.121 146.532 163.831 145.767C164.469 145.082 164.894 144.404 165.107 143.734C165.32 143.047 165.162 142.458 164.635 141.968C163.527 140.939 162.071 141.395 160.265 143.338L160.069 143.549C159.93 143.698 159.755 143.781 159.544 143.797C159.331 143.797 159.15 143.727 159.001 143.588C158.852 143.449 158.773 143.278 158.766 143.074C158.758 142.854 158.823 142.669 158.962 142.519L159.035 142.44C159.852 141.561 160.345 140.766 160.515 140.055C160.675 139.336 160.492 138.732 159.964 138.242C159.543 137.849 159.045 137.715 158.472 137.838C157.899 137.96 157.294 138.365 156.657 139.05C155.971 139.789 155.483 140.605 155.193 141.498C155.146 141.619 155.09 141.714 155.025 141.785C154.902 141.916 154.752 141.99 154.574 142.005C154.388 142.012 154.224 141.95 154.084 141.819C153.881 141.631 153.814 141.404 153.88 141.139C154.216 139.878 154.801 138.8 155.634 137.903C156.574 136.892 157.508 136.302 158.435 136.132C159.363 135.963 160.205 136.229 160.961 136.931C161.567 137.495 161.903 138.094 161.969 138.729C162.034 139.346 161.938 139.961 161.68 140.573C162.26 140.178 162.914 139.959 163.643 139.916C164.371 139.855 165.095 140.16 165.816 140.83C166.625 141.581 166.955 142.486 166.807 143.544C166.658 144.586 166.118 145.607 165.187 146.609Z" fill="white"/>
<path d="M156.643 151.512C156.578 151.583 156.499 151.641 156.407 151.686L149.158 154.754C148.949 154.838 148.746 154.871 148.55 154.852C148.354 154.817 148.181 154.73 148.031 154.591L147.926 154.493C147.776 154.354 147.681 154.192 147.64 154.007C147.599 153.804 147.613 153.596 147.681 153.381L150.211 145.927C150.25 145.832 150.302 145.75 150.367 145.679C150.506 145.53 150.673 145.456 150.868 145.457C151.063 145.441 151.235 145.503 151.385 145.642C151.49 145.74 151.559 145.869 151.59 146.029C151.621 146.173 151.609 146.317 151.555 146.464L149.253 153.171L155.774 150.385C155.916 150.32 156.064 150.302 156.218 150.331C156.371 150.342 156.5 150.397 156.606 150.495C156.755 150.634 156.834 150.805 156.841 151.008C156.848 151.195 156.782 151.363 156.643 151.512Z" fill="white"/>
<path d="M106.75 81L94.5 128" stroke="white" stroke-width="2.96893" stroke-linecap="round" stroke-linejoin="round"/>
<path d="M82.25 90.4L70 103.56L82.25 116.72" stroke="white" stroke-width="2.96893" stroke-linecap="round" stroke-linejoin="round"/>
<path d="M120.75 90.4L133 103.56L120.75 116.72" stroke="white" stroke-width="2.96893" stroke-linecap="round" stroke-linejoin="round"/>
</svg>
